<?xml version="1.0" encoding="utf-8"?>
<!-- Generator: Adobe Illustrator 25.3.1, SVG Export Plug-In . SVG Version: 6.00 Build 0)  -->
<svg version="1.1" id="Layer_1" xmlns="http://www.w3.org/2000/svg" xmlns:xlink="http://www.w3.org/1999/xlink" x="0px" y="0px"
	 viewBox="0 0 16 22.1" style="enable-background:new 0 0 16 22.1;" xml:space="preserve">
<style type="text/css">
	.st0{fill:url(#SVGID_1_);}
	.st1{fill:#FFB715;}
	.st2{fill:#FFF4B3;}
</style>
<g>
	<linearGradient id="SVGID_1_" gradientUnits="userSpaceOnUse" x1="9.1943" y1="27.6703" x2="5.8674" y2="-9.2822">
		<stop  offset="0" style="stop-color:#EC3F31"/>
		<stop  offset="0.4358" style="stop-color:#F66825"/>
		<stop  offset="0.7909" style="stop-color:#FD831D"/>
		<stop  offset="1" style="stop-color:#FF8D1A"/>
	</linearGradient>
	<path class="st0" d="M0.08,8.11c0,0,1.9,0.98,0.45,3.98c-1.46,3,0.18,7.78,4.13,9.42s8.7-0.33,10.37-3.09
		c1.66-2.76,0.95-7.07-0.24-8.41c0.14,0.16,0.17,0.58,0.2,0.78c0.09,0.54,0.08,1.12-0.16,1.62c-0.5,1.07-1.54,1.73-2.59,1.19
		c-1.25-0.65-0.63-2-0.25-3.17c0.57-1.75,0.84-4.33-1.01-5.73c0,0,0.74,1.1-0.18,2.17c0,0-1.51,0.92-1.81,2.09
		c0,0,1.6-5.48-2.38-8.95c0.38,0.83,0.05,1.97-0.28,2.75C5.94,3.7,5.28,4.42,4.77,5.29C4.25,6.17,3.94,7.16,3.86,8.18
		c-0.04,0.56,0.46,2.88-0.57,2.88C1.98,11.05,1.74,8.2,0.08,8.11z"/>
	<path class="st1" d="M2.4,14.25c0,0-1.92,7.78,5.6,7.85c2.08,0.02,4.44-0.66,5.07-3.15c0.21-0.81,0.17-1.68-0.09-2.47
		c-0.25-0.76-0.62-1.61-1.25-2.06c0.29,0.41,0.28,1.04-0.01,1.45c-0.76,1.06-2.51,0.17-1.96-1.19c0.13-0.32,0.31-0.61,0.43-0.92
		c0.39-1.02-0.14-2.24-0.55-3.16c0,0,0.27,1.38-1.19,1.35C7,11.92,6.38,9.52,7.39,7.78c0,0-3.06,2.2-2.52,5.65
		C5.4,16.88,2.46,16.62,2.4,14.25z"/>
	<path class="st2" d="M7.69,22.1c0,0,3.61,0.31,2.79-3.52c0,0-0.56,1.94-1.92,1.12c-1.35-0.82,0.53-2.25,0.04-4.13
		c-0.49-1.88-1.47-1.99-1.47-1.99s1.32,2.44-0.68,3.87C4.46,18.87,3.59,22.16,7.69,22.1z"/>
</g>
</svg>
